<?xml version="1.0" standalone="no"?>
<!DOCTYPE svg PUBLIC "-//W3C//DTD SVG 20010904//EN"
 "http://www.w3.org/TR/2001/REC-SVG-20010904/DTD/svg10.dtd">
<svg version="1.0" xmlns="http://www.w3.org/2000/svg"
 width="154.000000pt" height="61.000000pt" viewBox="0 0 154.000000 61.000000"
 preserveAspectRatio="xMidYMid meet">

<g transform="translate(0.000000,61.000000) scale(0.100000,-0.100000)"
fill="#000000" stroke="none">
<path d="M194 465 c3 -9 6 -19 6 -21 0 -2 45 -4 101 -4 90 0 100 2 97 18 -3
15 -17 17 -107 20 -92 2 -103 1 -97 -13z"/>
<path d="M140 414 c0 -3 9 -22 21 -40 16 -26 27 -34 50 -34 l29 0 -23 38 c-16
25 -33 38 -51 40 -14 2 -26 0 -26 -4z"/>
<path d="M220 416 c0 -3 9 -21 21 -40 20 -35 23 -36 80 -36 46 0 59 3 59 15 0
11 -11 15 -40 15 -31 0 -43 5 -56 25 -10 15 -26 25 -40 25 -13 0 -24 -2 -24
-4z"/>
<path d="M161 284 c-27 -45 -26 -54 3 -54 17 0 31 10 45 34 27 43 26 56 -3 56
-17 0 -30 -11 -45 -36z"/>
<path d="M240 280 c-25 -49 -25 -50 5 -50 17 0 29 8 37 25 9 21 18 25 55 25
36 0 43 3 43 20 0 18 -7 20 -60 20 -59 0 -60 0 -80 -40z"/>
<path d="M197 203 c-22 -22 -1 -28 88 -26 94 1 115 6 115 24 0 10 -193 13
-203 2z"/>
</g>
</svg>
